<svg width="1600" height="1140" viewBox="0 0 1600 1140" fill="none" xmlns="http://www.w3.org/2000/svg">
<path d="M1290.56 12.4694C1293.18 11.5228 1299.16 8.33008 1303.84 5.37439C1308.51 2.41809 1312.76 0 1313.26 0C1313.77 0 1314.88 0.342407 1315.73 0.760742C1316.93 1.35229 1317.61 1.35229 1318.81 0.760742C1319.66 0.342407 1320.77 0 1321.27 0C1321.78 0 1326.02 2.41809 1330.7 5.37439C1335.38 8.33008 1341.36 11.5228 1343.98 12.4694C1346.61 13.416 1350.54 15.0022 1352.72 15.9951C1355.99 17.4818 1357.23 17.6967 1359.79 17.2142C1361.5 16.8928 1363.96 16.042 1365.27 15.3243C1367.65 14.0215 1367.67 14.0259 1374.65 17.7443C1380.05 20.6194 1382.41 21.4436 1384.99 21.3542C1387.57 21.2655 1388.55 21.6052 1389.25 22.8239C1389.75 23.6956 1392 26.5917 1394.26 29.2595C1398.06 33.7438 1398.97 34.3054 1406.33 36.6893C1417.3 40.2416 1419.49 41.4684 1422.79 45.9108C1424.9 48.7571 1425.63 49.8442 1426.51 49.9768C1427.11 50.0669 1427.77 49.717 1428.98 49.179C1432.5 47.6067 1436.32 48.4214 1439.4 51.3999C1441.62 53.5459 1442.57 53.8895 1446.27 53.8895C1449.45 53.8895 1452.08 54.5483 1456.4 56.4255C1460.28 58.1107 1463.47 58.9628 1465.9 58.9653C1470.73 58.9705 1475.94 60.3621 1479.97 62.7242C1484.11 65.1512 1492.11 66.3386 1497.25 65.2882C1500.13 64.7004 1502.29 64.7556 1507.9 65.5602C1511.77 66.1155 1516.58 66.5695 1518.59 66.5695C1521.6 66.5695 1522.78 67.0608 1525.21 69.3171C1530.48 74.218 1535.28 76.5371 1543.16 77.9865C1551.67 79.553 1555.27 81.0334 1559.8 84.8253C1562.78 87.3278 1563.22 87.4691 1565.24 86.5688C1568.8 84.9794 1570.48 85.3706 1579.09 89.7908L1587.28 93.9916L1590.19 92.6438C1593.66 91.0353 1595.28 90.9618 1597.98 92.2913C1599.79 93.184 1600 99.8928 1600 156.644V220L800 219.988C333.408 219.981 0 219.741 0 219.412C0 218.81 83.813 179.491 87.1248 178.539C88.6323 178.106 88.8996 178.217 88.2789 179.015C86.7933 180.924 89.2684 180.014 94.1365 176.86C99.0625 173.67 104.387 172.336 107.018 173.634C109.327 174.773 110.286 174.508 113.804 171.758C116.146 169.928 118.886 168.807 123.138 167.938C136.77 165.152 139.6 164.175 144.037 160.718C147.889 157.716 148.963 157.288 152.7 157.261C155.287 157.243 159.237 156.46 162.733 155.274C168.365 153.362 168.599 153.34 172.797 154.323C178.013 155.544 187.111 155.645 188.53 154.498C190.513 152.896 195.954 151.525 200.332 151.525C203.69 151.525 206.991 150.693 214.08 148.061L223.409 144.597L232.186 147.778C237.015 149.528 245.102 151.912 250.16 153.076C255.408 154.283 260.297 155.9 261.548 156.841L263.74 158.492L267.551 156.911C272.125 155.012 273.014 154.973 276.17 156.53C278.562 157.71 278.651 157.684 280.99 155.123C284.731 151.03 288.578 149.214 298.539 146.848C306.542 144.946 308.344 144.194 311.887 141.272C314.14 139.414 316.691 137.109 317.556 136.15C318.795 134.776 319.994 134.407 323.218 134.407C325.468 134.407 330.442 133.875 334.271 133.225C340.551 132.159 341.522 132.137 344.159 133.001C348.597 134.454 355.845 133.123 362.696 129.597C367.153 127.302 369.429 126.639 373.851 126.346C378.122 126.063 380.737 125.341 385.162 123.219C392.767 119.573 396.098 119.587 406.68 123.312C411.137 124.881 415.144 126.165 415.585 126.165C416.026 126.165 416.386 125.024 416.386 123.629C416.386 121.56 416.835 121.093 418.829 121.093C420.98 121.093 434.236 115.997 497.992 90.6587C506.474 87.2877 516.542 83.6017 520.366 82.4669C527.253 80.4235 527.366 80.4139 532.48 81.4049L537.641 82.4048L549.507 78.6135C563.854 74.0278 578.421 70.1578 585.382 69.082C588.209 68.6451 592.15 67.618 594.142 66.8003C596.133 65.9817 601.916 64.7264 606.994 64.0112C612.07 63.2955 622.017 61.3308 629.097 59.645L641.969 56.5808L654.157 59.6411C666.701 62.7902 670.487 63.2435 674.784 62.1093C676.617 61.6249 677.269 61.6586 677.269 62.2367C677.269 62.6678 679.667 61.7898 682.597 60.2853C687.589 57.7227 688.278 57.5692 693.48 57.8584C698.39 58.1316 699.289 57.9757 701.227 56.5162C704.748 53.8649 708.201 52.7667 717.412 51.3682C725.201 50.1864 726.602 49.7064 731.381 46.5828C735.379 43.9707 737.505 43.1117 739.97 43.1117C741.772 43.1117 746.294 42.2633 750.018 41.2262C756.503 39.4205 756.985 39.38 761.326 40.2751C767.365 41.5197 774.19 41.4677 776.389 40.1604C778.722 38.7726 785.522 37.4056 790.091 37.4056C792.355 37.4056 796.925 36.3152 802.02 34.5597C806.565 32.9944 810.913 31.7106 811.686 31.7067C812.458 31.7029 817.208 33.1262 822.241 34.8698C827.273 36.6132 831.942 38.0397 832.617 38.0397C835.402 38.0397 845.881 40.6454 848.711 42.0415C850.384 42.8669 855.145 44.4823 859.29 45.6318C867.474 47.9003 876.29 51.2528 885.633 55.6495C891.179 58.259 891.796 58.3928 894.629 57.5972C896.302 57.1267 899.143 56.7426 900.943 56.7426C903.41 56.7426 906.192 55.6108 912.248 52.1461C916.666 49.6177 920.708 47.5496 921.231 47.5496C921.753 47.5496 923.895 48.6489 925.99 49.993C934.427 55.4048 939.402 57.6935 942.732 57.6935C948.61 57.6935 953.547 59.5214 956.218 62.6855C957.362 64.041 958.029 64.1495 962.92 63.7761C965.909 63.5485 970.006 62.7681 972.026 62.0433L975.698 60.7246L982.517 64.0468C988.271 66.8497 989.855 67.3042 992.659 66.9568C994.755 66.6975 995.984 66.8079 995.984 67.2567C995.984 67.6479 998.223 70.3246 1000.96 73.2048C1006 78.5159 1010.53 80.7437 1020.63 82.8872C1024.31 83.6689 1029.42 87.5535 1031.96 91.5032L1033.52 93.9302L1036.01 92.6127C1039.14 90.951 1040.71 90.9574 1044.35 92.6438L1047.26 93.9916L1055.45 89.7908C1064.06 85.3706 1065.74 84.9794 1069.3 86.5688C1071.32 87.4691 1071.76 87.3278 1074.74 84.8253C1079.26 81.0334 1082.86 79.553 1091.38 77.9865C1099.26 76.5371 1104.06 74.218 1109.33 69.3171C1111.76 67.0608 1112.94 66.5695 1115.94 66.5695C1117.96 66.5695 1122.77 66.1155 1126.64 65.5602C1132.25 64.7556 1134.41 64.7004 1137.29 65.2882C1142.43 66.3386 1150.43 65.1512 1154.57 62.7242C1158.6 60.3621 1163.81 58.9705 1168.64 58.9653C1171.07 58.9628 1174.26 58.1107 1178.14 56.4255C1182.46 54.5483 1185.09 53.8895 1188.27 53.8895C1191.97 53.8895 1192.91 53.5459 1195.13 51.3999C1198.21 48.4214 1202.04 47.6067 1205.56 49.179C1206.77 49.717 1207.43 50.0669 1208.03 49.9768C1208.9 49.8442 1209.64 48.7571 1211.75 45.9108C1215.05 41.4684 1217.23 40.2416 1228.21 36.6893C1235.57 34.3054 1236.48 33.7438 1240.28 29.2595C1242.54 26.5917 1244.79 23.6956 1245.29 22.8239C1245.98 21.6052 1246.97 21.2655 1249.54 21.3542C1252.13 21.4436 1254.49 20.6194 1259.89 17.7443C1266.87 14.0259 1266.89 14.0215 1269.26 15.3243C1270.57 16.042 1273.04 16.8928 1274.75 17.2142C1277.31 17.6967 1278.55 17.4818 1281.82 15.9951C1284 15.0022 1287.93 13.416 1290.56 12.4694Z" fill="#F5F5F5"/>
<path d="M1600 220V1140H0V220H1600Z" fill="#F5F5F5"/>
</svg>
