<svg width="19" height="13" viewBox="0 0 19 13" fill="none" xmlns="http://www.w3.org/2000/svg">
<path d="M9.32938 3.80572C7.89842 3.80572 6.73115 5.01297 6.73115 6.5C6.73115 7.9832 7.89454 9.19428 9.32938 9.19428C10.7603 9.19428 11.9276 7.98703 11.9276 6.5C11.9276 5.01681 10.7603 3.80572 9.32938 3.80572Z" fill="black"/>
<path d="M9.32937 10.758C7.02587 10.758 5.14894 8.84935 5.14894 6.5C5.14894 4.15065 7.02587 2.24204 9.32937 2.24204C11.6329 2.24204 13.5098 4.15065 13.5098 6.5C13.5098 8.84935 11.6329 10.758 9.32937 10.758ZM18.8808 6.08608C16.4066 2.16156 13.0716 0 9.5 0C5.92841 0 2.59338 2.16156 0.119247 6.08608C-0.039749 6.33903 -0.039749 6.66097 0.119247 6.91391C2.59338 10.8384 5.92841 13 9.5 13C13.0716 13 16.4027 10.8384 18.8808 6.91391C19.0397 6.66097 19.0397 6.33903 18.8808 6.08608Z" fill="black"/>
</svg>
