<svg width="30" height="30" viewBox="0 0 30 30" fill="none" xmlns="http://www.w3.org/2000/svg">
<path d="M17.6532 15.0003L29.4503 3.20269C30.1832 2.47035 30.1832 1.28208 29.4503 0.54973C28.7174 -0.183243 27.5304 -0.183243 26.7974 0.54973L15.0003 12.3473L3.20256 0.54973C2.46962 -0.183243 1.28265 -0.183243 0.549707 0.54973C-0.183236 1.28208 -0.183236 2.47035 0.549707 3.20269L12.3475 15.0003L0.549707 26.7979C-0.183236 27.5303 -0.183236 28.7185 0.549707 29.4509C0.916179 29.8168 1.39647 30 1.87613 30C2.3558 30 2.83609 29.8168 3.20256 29.4503L15.0003 17.6526L26.7974 29.4503C27.1639 29.8168 27.6442 30 28.1239 30C28.6035 30 29.0838 29.8168 29.4503 29.4503C30.1832 28.7179 30.1832 27.5297 29.4503 26.7973L17.6532 15.0003Z" fill="white"/>
</svg>
