<svg width="10" height="10" viewBox="0 0 10 10" fill="none" xmlns="http://www.w3.org/2000/svg">
<path d="M5.89196 5L9.93463 0.957588C10.0216 0.870467 10.0216 0.729305 9.93463 0.642184L9.35807 0.065314C9.31625 0.0235973 9.25936 0 9.20026 0C9.14106 0 9.08428 0.0235973 9.04245 0.065314L4.99988 4.10783L0.957311 0.065314C0.87356 -0.0184354 0.725338 -0.0183301 0.641798 0.065314L0.0653412 0.642184C-0.0217804 0.729305 -0.0217804 0.870467 0.0653412 0.957588L4.10791 5L0.0653412 9.04241C-0.0217804 9.12953 -0.0217804 9.27069 0.0653412 9.35782L0.641903 9.93469C0.683726 9.9764 0.740508 10 0.799712 10C0.858917 10 0.915594 9.9764 0.957416 9.93469L4.99999 5.89217L9.04256 9.93469C9.08438 9.9764 9.14127 10 9.20037 10C9.25947 10 9.31635 9.9764 9.35818 9.93469L9.93474 9.35782C10.0218 9.27069 10.0218 9.12953 9.93474 9.04241L5.89196 5Z" fill="#AFAFAF"/>
</svg>
