<svg width="280" height="280" viewBox="0 0 280 280" fill="none" xmlns="http://www.w3.org/2000/svg">
<path d="M140 0C62.8041 0 0 62.8041 0 140C0 217.196 62.8041 280 140 280C217.196 280 280 217.196 280 140C280 62.8041 217.196 0 140 0ZM140 264.865C105.702 264.865 74.5936 250.963 52.0041 228.502C42.9834 219.532 35.3259 209.195 29.3635 197.834C20.2832 180.533 15.1353 160.857 15.1353 140C15.1353 71.1493 71.1493 15.1353 140 15.1353C172.657 15.1353 202.421 27.7431 224.695 48.3404C236.243 59.0184 245.779 71.8418 252.655 86.1749C260.478 102.482 264.865 120.738 264.865 140C264.865 208.851 208.851 264.865 140 264.865Z" fill="black"/>
<path d="M154.795 177.468C171.4 180.941 186.316 190.277 196.795 203.756L208.744 194.466C196.066 178.158 178.006 166.86 157.893 162.653C125.546 155.893 91.5376 168.378 71.2553 194.466L83.2056 203.756C99.9642 182.198 128.066 171.878 154.795 177.468Z" fill="black"/>
<path d="M93.334 123.919C101.693 123.919 108.469 117.142 108.469 108.783C108.469 100.424 101.693 93.648 93.334 93.648C84.9749 93.648 78.1986 100.424 78.1986 108.783C78.1986 117.142 84.9749 123.919 93.334 123.919Z" fill="black"/>
<path d="M186.984 123.919C195.343 123.919 202.119 117.142 202.119 108.783C202.119 100.424 195.343 93.648 186.984 93.648C178.625 93.648 171.849 100.424 171.849 108.783C171.849 117.142 178.625 123.919 186.984 123.919Z" fill="black"/>
</svg>
