<svg width="22" height="20" viewBox="0 0 22 20" fill="none" xmlns="http://www.w3.org/2000/svg">
<path d="M15.8483 0.0093502C14.2028 0.0093502 12.6524 0.673212 11.4873 1.87471L11.0068 2.37027L10.5172 1.86536C9.35215 0.663862 7.80177 0 6.15619 0C4.51515 0 2.9693 0.659187 1.80424 1.86068C0.639192 3.06218 0 4.65638 0 6.35344C0 8.05049 0.643726 9.64469 1.80878 10.8462L10.4447 19.7522L10.4628 19.7709C10.6124 19.9252 10.8119 20 11.0068 20C11.2063 20 11.4057 19.9205 11.5553 19.7662L20.1912 10.8602C21.3563 9.65872 22 8.06452 22 6.36746C22 4.67041 21.3608 3.07153 20.1958 1.87471C19.0352 0.668537 17.4894 0.0093502 15.8483 0.0093502ZM19.0942 9.72417L11.0113 18.0645L2.91036 9.71014C2.03998 8.81253 1.55945 7.62038 1.55491 6.34876C1.55491 5.08181 2.03091 3.88967 2.9013 2.99205C3.77169 2.09911 4.92767 1.60355 6.15166 1.60355C7.38471 1.60355 8.5407 2.09911 9.41562 3.0014L10.4537 4.072C10.7439 4.3712 11.2607 4.3712 11.5553 4.072L12.5889 3.00608C13.4593 2.10846 14.6198 1.6129 15.8483 1.6129C17.0769 1.6129 18.2328 2.10846 19.1032 3.00608C19.9736 3.90369 20.4542 5.09584 20.4496 6.36746C20.4496 7.63441 19.9691 8.82656 19.0942 9.72417Z" fill="black"/>
</svg>
