<svg width="95" height="50" viewBox="0 0 95 50" fill="none" xmlns="http://www.w3.org/2000/svg">
<path fill-rule="evenodd" clip-rule="evenodd" d="M40.6126 24.9774V49.6834H28.9721C28.9721 45.0636 28.9721 40.2508 28.9721 34.2082L26.1296 34.2109L23.2872 34.2136L18.1919 42.0842L13.0971 49.9548H6.68672C3.16154 49.9548 1.73857 49.6951 0.11 49.6951C0.652857 48.7209 2.46961 45.5909 5.14963 41.2969C7.82966 37.003 10.0224 33.3242 10.0224 33.1217C10.0224 32.9192 9.41385 32.4755 8.66994 32.1356C6.19241 31.0035 2.5806 27.1586 1.29581 24.2862C-0.413451 20.4647 -0.434565 13.9629 1.24925 10.1897C2.625 7.10715 6.24493 3.34373 9.17076 1.95369C12.4047 0.417574 15.7279 0.118903 28.7014 0.198179L40.6126 0.271491V24.9774ZM56.3138 19.578L66.0306 9.78895L75.748 0C78.2177 0 87.1557 -0.000121893 92.5571 0C92.7066 0.243258 86.8574 5.75352 80.9186 11.7041C74.9792 17.6553 70.12 22.7278 70.12 22.9776C70.12 23.2274 72.6338 26.0395 75.7058 29.2269C87.8417 41.8193 93.9143 48.6542 95 49.9993C94.1857 49.9993 81.1572 50 78.4429 50L61.2845 31.433L55.7723 36.8177L55.9234 43.1316L55.7723 49.6834H44.1318V24.9774V0.442382L56.3138 0.271491V19.578ZM13.9829 11.6547C10.4063 13.2147 9.44255 18.271 12.1431 21.3036L13.9829 23.077L28.9721 22.9776V17.1562V11.6547C24.4136 11.6692 21.7143 11.6547 13.9829 11.6547Z" fill="#B3EF34"/>
</svg>
