<svg width="20" height="15" viewBox="0 0 20 15" fill="none" xmlns="http://www.w3.org/2000/svg">
<path d="M19.2857 0H0.714286C0.319196 0 0 0.304688 0 0.681818V14.3182C0 14.6953 0.319196 15 0.714286 15H19.2857C19.6808 15 20 14.6953 20 14.3182V0.681818C20 0.304688 19.6808 0 19.2857 0ZM17.4821 2.32031L10.4397 7.55114C10.2656 7.68111 10.0223 7.68111 9.84822 7.55114L2.80357 2.32031C2.77702 2.30075 2.75754 2.27375 2.74787 2.24309C2.7382 2.21242 2.73882 2.17964 2.74965 2.14934C2.76048 2.11903 2.78097 2.09272 2.80825 2.07409C2.83554 2.05546 2.86824 2.04545 2.90179 2.04545H17.3839C17.4175 2.04545 17.4502 2.05546 17.4775 2.07409C17.5047 2.09272 17.5252 2.11903 17.5361 2.14934C17.5469 2.17964 17.5475 2.21242 17.5378 2.24309C17.5282 2.27375 17.5087 2.30075 17.4821 2.32031Z" fill="#F86E22"/>
</svg>
