<svg width="20" height="20" viewBox="0 0 20 20" fill="none" xmlns="http://www.w3.org/2000/svg">
<path d="M19.7479 18.5745L14.0096 12.8274C15.1409 11.4696 15.8213 9.73439 15.8213 7.8392C15.8213 3.51554 12.2758 0 7.91475 0C3.55364 0 0 3.51964 0 7.8433C0 12.167 3.54545 15.6825 7.90655 15.6825C9.7592 15.6825 11.4643 15.0467 12.8169 13.9842L18.5757 19.7477C18.9118 20.0841 19.4118 20.0841 19.7479 19.7477C20.084 19.4113 20.084 18.9109 19.7479 18.5745ZM1.6805 7.8433C1.6805 4.44672 4.47587 1.68598 7.90655 1.68598C11.3372 1.68598 14.1326 4.44672 14.1326 7.8433C14.1326 11.2399 11.3372 14.0006 7.90655 14.0006C4.47587 14.0006 1.6805 11.2358 1.6805 7.8433Z" fill="black"/>
</svg>
