<svg width="30" height="30" viewBox="0 0 30 30" fill="none" xmlns="http://www.w3.org/2000/svg">
<path d="M29.2302 25.4455L23.3358 19.4724L22.5844 20.2334L20.0308 17.7341C21.3384 15.8934 22.1178 13.6433 22.1178 11.2076C22.1178 5.02793 17.1565 0 11.0589 0C4.96123 0 0 5.02793 0 11.2076C0 17.3872 4.96123 22.4151 11.0589 22.4151C13.6151 22.4151 15.9653 21.5233 17.8406 20.0413L20.351 22.4979L19.6132 23.2456L25.5071 29.2187C26.0042 29.7225 26.6651 30 27.3686 30C28.0722 30 28.7331 29.7225 29.2302 29.2187C30.2566 28.179 30.2566 26.4856 29.2302 25.4455ZM1.05323 11.2076C1.05323 5.61606 5.54156 1.06739 11.0589 1.06739C16.5762 1.06739 21.0645 5.61606 21.0645 11.2076C21.0645 13.5884 20.2451 15.776 18.8849 17.5078C18.7243 17.7128 18.5531 17.907 18.3788 18.0981C18.3262 18.1557 18.2767 18.216 18.2224 18.2721C18.0565 18.4455 17.8817 18.6067 17.7058 18.7657C17.6152 18.8479 17.5299 18.9355 17.4362 19.0139L17.4104 19.0358C15.6815 20.4789 13.4681 21.3472 11.0589 21.3472C5.54156 21.3478 1.05323 16.7991 1.05323 11.2076Z" fill="black"/>
<path d="M20.0113 11.2076C20.0113 6.20472 15.9954 2.13478 11.0589 2.13478C6.12241 2.13478 2.10645 6.20472 2.10645 11.2076C2.10645 16.2104 6.12241 20.2804 11.0589 20.2804C15.9954 20.2804 20.0113 16.2104 20.0113 11.2076Z" fill="black"/>
</svg>
