<svg width="17" height="20" viewBox="0 0 17 20" fill="none" xmlns="http://www.w3.org/2000/svg">
<path d="M12.1216 3.95462C12.1216 3.59296 12.424 3.29976 12.7971 3.29976C13.1701 3.29976 13.4726 3.59292 13.4726 3.95462C13.4726 6.6127 11.2419 8.77524 8.5 8.77524C5.75817 8.77524 3.52748 6.6127 3.52748 3.95462C3.52748 3.59296 3.82992 3.29976 4.20298 3.29976C4.57604 3.29976 4.87848 3.59296 4.87848 3.95462C4.87848 5.89052 6.5031 7.46551 8.5 7.46551C10.4969 7.46551 12.1216 5.89052 12.1216 3.95462Z" fill="black"/>
<path fill-rule="evenodd" clip-rule="evenodd" d="M15.6473 0.609115L16.9983 19.2994C17.0114 19.4806 16.9464 19.6589 16.8186 19.7917C16.6909 19.9246 16.5119 20 16.3245 20H0.675484C0.488139 20 0.309194 19.9246 0.181394 19.7917C0.0535952 19.6589 -0.0114479 19.4806 0.0016575 19.2994L1.35265 0.609115C1.37741 0.265995 1.67176 0 2.02648 0H14.9735C15.3282 0 15.6225 0.265995 15.6473 0.609115ZM2.65628 1.30972L1.39997 18.6903H15.6L14.3438 1.30972H2.65628Z" fill="black"/>
</svg>
