<svg width="31" height="30" viewBox="0 0 31 30" fill="none" xmlns="http://www.w3.org/2000/svg">
<path d="M29.2611 8.36244L7.70717 6.36203C7.58893 6.34819 7.47765 6.34819 7.36637 6.35511L6.50393 2.20203C6.48307 2.11897 6.4622 2.0359 6.42743 1.96669C6.29528 1.63444 6.01707 1.36449 5.64845 1.25374L1.53798 0.0493453C0.905062 -0.137543 0.237371 0.222391 0.0495828 0.859197C-0.138205 1.48908 0.223461 2.15357 0.863332 2.34046L4.2922 3.34413L8.41659 23.1267C8.4931 23.7081 8.99387 24.158 9.60592 24.158L27.3415 24.1511C28.0022 24.1511 28.5377 23.6181 28.5377 22.9605C28.5377 22.303 28.0022 21.77 27.3415 21.77L10.5866 21.7769L10.0163 19.0428H27.6544C28.5795 19.0428 29.3793 18.4337 29.5462 17.5961L30.972 10.4459C31.1598 9.42147 30.3809 8.46626 29.2611 8.36244Z" fill="black"/>
<path d="M13.0139 30C14.3353 30 15.4065 28.9339 15.4065 27.6189C15.4065 26.3039 14.3353 25.2378 13.0139 25.2378C11.6925 25.2378 10.6214 26.3039 10.6214 27.6189C10.6214 28.9339 11.6925 30 13.0139 30Z" fill="black"/>
<path d="M24.4482 30C25.7695 30 26.8407 28.9339 26.8407 27.6189C26.8407 26.3039 25.7695 25.2378 24.4482 25.2378C23.1268 25.2378 22.0556 26.3039 22.0556 27.6189C22.0556 28.9339 23.1268 30 24.4482 30Z" fill="black"/>
</svg>
