<svg width="17" height="23" viewBox="0 0 17 23" fill="none" xmlns="http://www.w3.org/2000/svg">
<path d="M8.50005 1.4375C10.7837 1.4375 12.6417 3.31725 12.6417 5.62781C12.6417 7.93837 10.7837 9.81818 8.50005 9.81818C6.21636 9.81818 4.35839 7.93837 4.35839 5.62786C4.35839 3.31735 6.21636 1.4375 8.50005 1.4375ZM8.50005 0C5.4348 0 2.94994 2.51967 2.94994 5.62781C2.94994 8.73596 5.4348 11.2557 8.50005 11.2557C11.5653 11.2557 14.0502 8.736 14.0502 5.62786C14.0502 2.51972 11.5653 0 8.50005 0Z" fill="black"/>
<path d="M11.9756 13.9753C12.3933 13.9842 15.5915 14.1553 15.5915 17.2788V21.5625H1.4085V17.2788C1.4085 14.2114 4.42901 13.9886 5.01152 13.9753H11.9756ZM11.9885 12.5378H5.01147C5.01147 12.5378 0 12.5946 0 17.2788C0 21.9345 0 23 0 23H17C17 23 17 21.9345 17 17.2788C17 12.6229 11.9885 12.5378 11.9885 12.5378Z" fill="black"/>
</svg>
