<svg width="30" height="20" viewBox="0 0 30 20" fill="none" xmlns="http://www.w3.org/2000/svg">
<path d="M4.08772 9.72804V16.9148C4.08772 17.2804 4.38597 17.5836 4.74561 17.5836H6.94737C7.30702 18.9746 8.54386 20 10.0175 20C11.4912 20 12.7368 18.9746 13.0877 17.5836H21.5702C21.9298 18.9746 23.1667 20 24.6404 20C26.114 20 27.3596 18.9746 27.7105 17.5836H29.3421C29.7018 17.5836 30 17.2804 30 16.9148V10.6108C30 10.4681 29.9561 10.3344 29.8772 10.2274L27.5965 6.95497C27.4737 6.77664 27.2719 6.66964 27.0614 6.66964H22.307V4.56531C22.307 4.19973 22.0088 3.89657 21.6491 3.89657H9.52632C9.07018 1.67633 7.13158 0 4.81579 0C2.15789 0 0 2.19349 0 4.89523C0 7.33839 1.7807 9.37138 4.08772 9.72804ZM10.0175 18.6625C8.99123 18.6625 8.1579 17.8154 8.1579 16.7722C8.1579 15.7289 8.99123 14.8819 10.0175 14.8819C11.0439 14.8819 11.8772 15.7289 11.8772 16.7722C11.8772 17.8154 11.0351 18.6625 10.0175 18.6625ZM24.6404 18.6625C23.614 18.6625 22.7807 17.8154 22.7807 16.7722C22.7807 15.7289 23.614 14.8819 24.6404 14.8819C25.6667 14.8819 26.5 15.7289 26.5 16.7722C26.5 17.8154 25.6667 18.6625 24.6404 18.6625ZM28.6842 10.8337V10.9407H25.1053V8.01605H26.7193L28.6842 10.8337ZM23.7895 8.01605V11.6095C23.7895 11.975 24.0877 12.2782 24.4474 12.2782H28.6842V16.2461H27.7719C27.5263 14.7124 26.2105 13.5444 24.6404 13.5444C23.7193 13.5444 22.886 13.9456 22.307 14.5876V8.01605H23.7895ZM20.9912 16.255H13.1491C12.9035 14.7214 11.5877 13.5533 10.0175 13.5533C8.44737 13.5533 7.13158 14.7214 6.88596 16.255H5.40351V9.75479C7.67544 9.46946 9.45614 7.57913 9.61404 5.24298H20.9912V16.255ZM4.81579 1.34641C6.74561 1.34641 8.31579 2.94249 8.31579 4.90415C8.31579 6.8658 6.74561 8.46188 4.81579 8.46188C2.88596 8.46188 1.31579 6.8658 1.31579 4.90415C1.31579 2.94249 2.88596 1.34641 4.81579 1.34641Z" fill="black"/>
</svg>
