<svg width="20" height="20" viewBox="0 0 20 20" fill="none" xmlns="http://www.w3.org/2000/svg">
<path d="M19.7856 15.1679C19.0411 13.7603 16.4557 12.234 16.3419 12.1672C16.0097 11.9781 15.6631 11.878 15.3386 11.878C14.8563 11.878 14.4614 12.099 14.2223 12.501C13.8441 12.9534 13.3751 13.4822 13.2612 13.5641C12.3803 14.1619 11.6907 14.094 10.9277 13.3309L6.66907 9.07129C5.91086 8.31297 5.84116 7.61472 6.43475 6.73848C6.5178 6.6239 7.04651 6.15445 7.49884 5.77584C7.78729 5.60415 7.98528 5.34903 8.07204 5.03606C8.18735 4.61964 8.10244 4.12979 7.8303 3.65254C7.76616 3.54278 6.23936 0.956707 4.83268 0.212478C4.57018 0.0734217 4.27431 0 3.9777 0C3.48903 0 3.02929 0.1906 2.68373 0.53583L1.74274 1.47659C0.25449 2.96468 -0.284229 4.65153 0.140666 6.49004C0.495116 8.02225 1.52806 9.65273 3.21133 11.3359L8.66341 16.7887C10.7938 18.9194 12.8249 20 14.7002 20C14.7002 20 14.7002 20 14.7006 20C16.0798 20 17.3656 19.4137 18.5213 18.2579L19.4619 17.3171C20.0336 16.7457 20.1634 15.8817 19.7856 15.1679Z" fill="#F86E22"/>
</svg>
