<svg width="50" height="30" viewBox="0 0 50 30" fill="none" xmlns="http://www.w3.org/2000/svg">
<path fill-rule="evenodd" clip-rule="evenodd" d="M27.314 0.872395C28.1443 1.38024 29.1636 1.89991 29.5794 2.02719C30.2641 2.23667 30.3148 2.18007 30.1179 1.42374C29.8198 0.277561 30.6431 0.315939 32.5514 1.53695C34.1228 2.54241 34.6888 2.57374 33.7799 1.60474C32.4453 0.182892 33.6317 0.245263 35.8447 1.71348C37.3932 2.74069 38.1078 2.86348 37.1475 1.93733C36.9317 1.72913 36.863 1.45474 36.9947 1.32778C37.31 1.02333 39.3891 2.09723 40.8524 3.32048C41.4923 3.85551 43.1705 4.83379 44.5811 5.49418C47.318 6.77596 48.4802 7.90645 49.2584 10.045C49.964 11.9843 50.1948 14.6409 49.8261 16.5789C49.5316 18.1264 49.2743 18.53 47.6844 19.9368C46.6903 20.8163 44.9494 22.0888 43.8161 22.7649L41.7553 23.9938L41.9645 22.9846C42.1489 22.0958 42.0981 21.998 41.5427 22.1681C41.1956 22.2743 40.8092 22.2017 40.6842 22.0069C40.5592 21.8118 40.2522 21.7281 40.0018 21.8205C39.7515 21.9132 39.407 21.7479 39.2362 21.4533C39.0164 21.0747 38.5339 20.933 37.5885 20.9695C34.2518 21.0977 32.4927 23.2804 31.7198 28.2504L31.4913 29.7206L29.6566 29.6256C27.8449 29.5322 27.816 29.5149 27.369 28.2652C27.1197 27.5689 26.9068 25.8062 26.8958 24.3476L26.8756 21.6958L19.0273 21.6986L11.1786 21.7018L9.47194 22.6459C7.0424 23.9897 5.93788 25.5881 5.23658 28.7733C5.12317 29.2895 4.76174 29.6892 4.30183 29.8082C3.20594 30.0916 1.13119 30.0529 0.934231 29.7455C0.639782 29.286 0.0644783 25.3194 0.00844006 23.3638C-0.0359926 21.8061 0.0810582 21.3657 0.696484 20.7722C1.64018 19.862 2.54475 17.8296 3.0491 15.4855C3.52194 13.2894 3.33094 12.8279 2.73972 14.7381C2.17072 16.5767 0.749537 18.8648 0.331405 18.6154C-0.10629 18.3544 0.273378 14.001 0.91301 11.9513C1.60437 9.73607 2.58123 8.38809 4.51736 6.97808C7.10507 5.09411 11.1829 3.56897 16.4578 2.51266C17.9185 2.22036 18.4288 1.97059 18.5607 1.48321C18.7096 0.934749 18.9116 0.871103 19.9309 1.05115C23.4629 1.67573 23.5133 1.67253 24.1155 0.786355C24.8427 -0.284027 25.4498 -0.267704 27.314 0.872395ZM42.1923 7.93013C41.1216 9.38044 40.7784 10.5848 41.1601 11.5529C41.5891 12.6415 43.2278 13.4429 44.7717 13.3191C45.8126 13.2357 45.9953 13.1068 45.9953 12.4563C45.9953 11.6821 45.7923 11.5087 44.0058 10.7569C43.2438 10.4361 42.9868 10.099 42.9082 9.31584C42.8518 8.75363 42.9689 7.99922 43.1685 7.63912C43.7292 6.62886 42.9904 6.84919 42.1923 7.93013ZM35.7423 14.4941C36.2881 15.2971 36.2851 17.387 35.737 18.5777C35.5599 18.9621 35.6242 19.1373 35.9422 19.1373C36.1965 19.1373 36.9857 19.4229 37.6956 19.7721C39.3446 20.5828 39.5416 20.3791 38.2826 19.1648C37.4095 18.3228 37.3064 18.035 37.4456 16.8319C37.5703 15.7535 37.4503 15.2712 36.8849 14.5801C35.9293 13.4122 34.9577 13.339 35.7423 14.4941ZM15.2492 24.0143C13.7375 25.8027 13.4629 26.3582 13.1877 28.1871L12.9569 29.7215L11.0954 29.6262C9.36451 29.5376 9.21662 29.4673 8.98384 28.6233C8.84623 28.1244 8.68674 26.9731 8.62971 26.0649L8.52592 24.4141L10.3261 23.5346C11.736 22.8461 12.5899 22.6552 14.2624 22.6552H16.3981L15.2492 24.0143Z" fill="#F86E22"/>
</svg>
